<?xml version="1.0" standalone="no"?>
<!DOCTYPE svg PUBLIC "-//W3C//DTD SVG 20010904//EN"
 "http://www.w3.org/TR/2001/REC-SVG-20010904/DTD/svg10.dtd">
<svg version="1.0" xmlns="http://www.w3.org/2000/svg"
 width="1024.000000pt" height="1024.000000pt" viewBox="0 0 1024.000000 1024.000000"
 preserveAspectRatio="xMidYMid meet">
<metadata>
Created by potrace 1.11, written by Peter Selinger 2001-2013
</metadata>
<g transform="translate(0.000000,1024.000000) scale(0.100000,-0.100000)"
fill="#000000" stroke="none">
<path d="M2860 5810 l0 -3850 23 -10 c12 -6 1010 -314 2217 -685 1207 -372
2203 -678 2213 -681 16 -5 17 183 17 3845 0 2367 -4 3852 -9 3856 -5 3 -1003
311 -2218 685 -1214 374 -2216 683 -2225 686 -17 5 -18 -183 -18 -3846z m2355
-234 c210 -56 349 -238 349 -456 0 -266 -204 -470 -469 -470 -234 0 -428 165
-467 398 -39 231 112 464 342 528 60 16 183 17 245 0z"/>
</g>
</svg>
